# xmcd CD database file
#
# Track frame offsets:
#	150
#	42222
#	79247
#	111856
#	137033
#	187140
#	237337
#
# Disc length: 3816 seconds
#
# Revision: 0
# Processed by: cddbd v1.5.1PL2 Copyright (c) Steve Scherf et al.
# Submitted via: CDex 1.51
#
DISCID=5e0ee607
DTITLE=Latinaje - La Conversa
DYEAR=2005
DGENRE=Jazz
TTITLE0=Madera y cuero
TTITLE1=Sambalanco
TTITLE2=Influencia Bosco
TTITLE3=Este Manuel que yo canto
TTITLE4=El Brigadeiro
TTITLE5=El Dogo
TTITLE6=La conversa
EXTD=YEAR: 2005
EXTT0=
EXTT1=
EXTT2=
EXTT3=
EXTT4=
EXTT5=
EXTT6=
PLAYORDER=
